<svg width="240" height="130" xmlns="http://www.w3.org/2000/svg"><g fill="none" fill-rule="evenodd"><path d="M0 109.318C0 120.723 9.682 130 21.579 130h196.85c11.894 0 21.573-9.28 21.573-20.682V20.681C240.002 9.277 230.322 0 218.428 0H21.577C9.682 0 0 9.279 0 20.68v88.638Z" fill="#FFF" fill-rule="nonzero"/><path d="M2.349 109.318c0 10.017 8.536 18.334 19.23 18.334h196.85c10.693 0 19.227-8.32 19.227-18.334V20.681c0-10.016-8.534-18.333-19.228-18.333H21.577c-10.694 0-19.228 8.32-19.228 18.333v88.637ZM21.578 130C9.684 130 0 120.723 0 109.318V20.681C0 9.28 9.68 0 21.577 0h196.851c11.895 0 21.574 9.277 21.574 20.681v88.64c0 11.402-9.68 20.681-21.574 20.681L21.578 130Z" fill="#BF3122"/><g fill-rule="nonzero"><path d="M101.456 19.472c1.589-.133 3.063 1.339 2.928 2.928-.197 2.264-3.014 53.717-19.48 70.184-15.783 15.78-34.376 12.078-46.52 3.348a12.977 12.977 0 0 1-.492-.377l-10.944 10.93a6.772 6.772 0 0 1-9.577-9.576l10.934-10.945a12.625 12.625 0 0 1-.38-.494c-8.727-12.141-12.432-30.737 3.348-46.52 16.462-16.466 67.916-19.286 70.183-19.478Z" fill="#BF3122"/><path d="M53.343 82.098c-2.58 0-4.101-1.576-4.101-4.265V46.651c0-2.69 1.521-4.264 4.101-4.264h18.335c2.254 0 3.721 1.276 3.721 3.395 0 2.118-1.494 3.395-3.721 3.395H57.445v10.485h12.902c2.119 0 3.504 1.222 3.504 3.232 0 2.037-1.358 3.26-3.504 3.26H57.445v11.68c0 2.688-1.521 4.264-4.102 4.264Z" fill="#FFF"/></g><g transform="translate(112.052 22.345)"><path d="M20.899 0v23.098c0 5.774-3.525 9.239-9.399 9.239-4.699 0-7.048-3.465-7.048-3.465v-5.774s3.524 4.62 7.048 4.62c3.525 0 4.7-2.31 4.7-4.62v-2.864c-1.316.277-3.008.554-4.7.554-5.873 0-10.573-4.62-10.573-10.394S5.627 0 11.5 0H20.9ZM11.5 16.168c1.27 0 3.196-.323 4.7-.646V4.62h-4.7c-3.524 0-5.873 2.31-5.873 5.774 0 3.465 2.349 5.774 5.873 5.774ZM29.827 9.24c0-5.776 3.524-9.24 9.398-9.24v4.62c-4.699 0-9.398 1.154-9.398 6.929v11.55h-4.7V0h4.7v9.24ZM61.104 11.549v1.155H44.751c.517 3.834 3.76 5.774 6.955 5.774 4.699 0 7.048-2.31 7.048-2.31v4.62s-2.35 2.31-7.048 2.31c-7.049 0-11.748-4.62-11.748-11.55C39.958 4.62 44.657 0 50.53 0c5.874 0 10.573 4.62 10.573 11.549Zm-10.573-6.93c-2.867 0-4.981 1.525-5.639 4.62H56.17c-.658-3.095-2.773-4.62-5.64-4.62ZM84.13 11.549v1.155H67.777c.517 3.834 3.76 5.774 6.955 5.774 4.699 0 7.049-2.31 7.049-2.31v4.62s-2.35 2.31-7.05 2.31c-7.048 0-11.747-4.62-11.747-11.55C62.984 4.62 67.683 0 73.557 0 79.43 0 84.13 4.62 84.13 11.549Zm-10.573-6.93c-2.867 0-4.981 1.525-5.64 4.62h11.279c-.658-3.095-2.773-4.62-5.64-4.62ZM100.107 0c4.7 0 8.223 3.464 8.223 9.24v13.858h-4.698v-11.55c0-4.618-2.35-6.928-5.875-6.928-3.524 0-5.873 2.31-5.873 6.929v11.55h-4.7V0h4.7v9.24c0-5.776 3.524-9.24 8.223-9.24Z" fill="#1D1D1B" fill-rule="nonzero"/><rect stroke="#FFF" stroke-width="1.855" fill="#BF3122" fill-rule="nonzero" x="80.366" y="33.636" width="29.055" height="15.764" rx="7.882"/><rect stroke="#FFF" stroke-width="1.855" fill="#DE4523" fill-rule="nonzero" x="64.293" y="33.636" width="29.055" height="15.764" rx="7.882"/><rect stroke="#FFF" stroke-width="1.855" fill="#EF7E1A" fill-rule="nonzero" x="48.22" y="33.636" width="29.055" height="15.764" rx="7.882"/><rect stroke="#FFF" stroke-width="1.855" fill="#F5C100" fill-rule="nonzero" x="32.147" y="33.636" width="29.055" height="15.764" rx="7.882"/><rect stroke="#FFF" stroke-width="1.855" fill="#2ECC71" fill-rule="nonzero" x="16.073" y="33.636" width="29.055" height="15.764" rx="7.882"/><rect stroke="#FFF" stroke-width="1.855" fill="#1E8F4E" fill-rule="nonzero" y="33.636" width="29.055" height="15.764" rx="7.882"/><path d="M39.273 59.509V64.7s-3.878-1.3-6.462-1.3c-3.878 0-7.755 2.597-7.755 7.79s3.877 7.791 7.755 7.791c2.584 0 6.462-1.3 6.462-1.3v5.193s-2.584 1.299-6.462 1.299c-7.755 0-12.924-5.192-12.924-12.982 0-7.79 5.169-12.982 12.924-12.982 3.878 0 6.462 1.299 6.462 1.299ZM9.29 84.174c-3.878 0-7.756-1.3-7.756-1.3v-5.191s3.878 1.3 7.756 1.3c2.584 0 3.877-1.3 3.877-2.597 0-1.542-1.916-2.066-4.232-2.7C5.398 72.715.927 71.49.927 66c0-5.192 3.194-7.79 8.365-7.79 3.877 0 7.755 1.299 7.755 1.299V64.7s-3.878-1.3-7.755-1.3c-2.585 0-3.878 1.3-3.878 2.597 0 1.541 2.023 2.066 4.469 2.7 3.735.97 8.455 2.194 8.455 7.686-.002 5.194-3.88 7.79-9.048 7.79Zm57.95-12.982c0 7.79-5.168 12.982-12.924 12.982-7.755 0-12.924-5.192-12.924-12.982 0-7.79 5.169-12.982 12.924-12.982 7.756 0 12.924 5.192 12.924 12.982Zm-20.677 0c0 5.192 3.878 7.79 7.755 7.79 3.878 0 7.756-2.596 7.756-7.79 0-5.192-3.878-7.79-7.756-7.79-3.877 0-7.755 2.598-7.755 7.79Zm38.41-12.982v5.192c-5.169 0-10.34 1.299-10.34 7.79v12.982h-5.168V58.21h5.168v10.385c0-6.49 3.878-10.385 10.34-10.385Zm23.521 14.28H90.507c.568 4.312 4.134 6.492 7.65 6.492 5.169 0 7.755-2.596 7.755-2.596v5.192s-2.585 2.596-7.755 2.596c-7.755 0-12.924-5.192-12.924-12.982 0-7.79 5.169-12.982 11.63-12.982 6.463 0 11.631 5.192 11.631 12.982v1.299Zm-17.833-3.895h12.407c-.723-3.479-3.05-5.192-6.202-5.192-3.156-.001-5.482 1.713-6.205 5.192Z" fill="#1D1D1B"/></g></g></svg>