<svg width="96" height="96" viewBox="0 0 96 96" fill="none" xmlns="http://www.w3.org/2000/svg">
<g clip-path="url(#clip0_18_127)">
<path d="M92.8325 0.00905925C94.5467 -0.134606 96.1367 1.45302 95.9906 3.16726C95.7788 5.60957 92.74 61.1058 74.9795 78.8667C57.9567 95.8874 37.9025 91.894 24.8048 82.4778C24.6466 82.3634 24.4688 82.227 24.274 82.0712L12.4694 93.8615C9.61562 96.7128 4.99165 96.7128 2.14032 93.8615C-0.713441 91.0076 -0.713441 86.3835 2.14032 83.5322L13.9328 71.7273C13.7745 71.53 13.6382 71.3523 13.5237 71.194C4.1102 58.0985 0.114442 38.0414 17.1348 21.0183C34.8904 3.25736 90.3878 0.216035 92.8325 0.00905925Z" fill="#BF3122"/>
<path d="M40.9395 67.5566C38.1562 67.5566 36.5156 65.8574 36.5156 62.957V29.3242C36.5156 26.4238 38.1562 24.7246 40.9395 24.7246H60.7148C63.1465 24.7246 64.7285 26.1016 64.7285 28.3867C64.7285 30.6719 63.1172 32.0488 60.7148 32.0488H45.3633V43.3574H59.2793C61.5645 43.3574 63.0586 44.6758 63.0586 46.8438C63.0586 49.041 61.5938 50.3594 59.2793 50.3594H45.3633V62.957C45.3633 65.8574 43.7227 67.5566 40.9395 67.5566Z" fill="white"/>
</g>
<defs>
<clipPath id="clip0_18_127">
<rect width="96" height="96" fill="white"/>
</clipPath>
</defs>
</svg>
