<svg width="96" height="96" viewBox="0 0 96 96" fill="none" xmlns="http://www.w3.org/2000/svg">
<path d="M92.8325 0.00905925C94.5467 -0.134606 96.1367 1.45302 95.9906 3.16726C95.7788 5.60957 92.74 61.1058 74.9795 78.8667C57.9567 95.8874 37.9025 91.894 24.8048 82.4778C24.6466 82.3634 24.4688 82.227 24.274 82.0712L12.4694 93.8615C9.61562 96.7128 4.99165 96.7128 2.14032 93.8615C-0.713441 91.0076 -0.713441 86.3835 2.14032 83.5322L13.9328 71.7273C13.7745 71.53 13.6382 71.3523 13.5237 71.194C4.1102 58.0985 0.114442 38.0414 17.1348 21.0183C34.8904 3.25736 90.3878 0.216035 92.8325 0.00905925Z" fill="#DE4523"/>
<path d="M60.0678 67.4282C62.481 67.4282 64.0511 66.0616 64.0511 63.7937C64.0511 61.5257 62.452 60.1592 60.0678 60.1592H44.5125V49.5755H59.3118C61.5215 49.5755 62.9753 48.2962 62.9753 46.2027C62.9753 44.1092 61.4925 42.8299 59.3118 42.8299H44.5125V32.7405H60.0678C62.452 32.7405 64.0511 31.3739 64.0511 29.106C64.0511 26.8381 62.481 25.4715 60.0678 25.4715H40.1221C37.3599 25.4715 35.7317 27.1579 35.7317 30.0364V62.8342C35.7317 65.7418 37.3599 67.4282 40.1221 67.4282H60.0678Z" fill="white"/>
</svg>
