<svg width="96" height="96" viewBox="0 0 96 96" fill="none" xmlns="http://www.w3.org/2000/svg">
<path d="M92.8325 0.00905925C94.5467 -0.134606 96.1367 1.45302 95.9906 3.16726C95.7788 5.60957 92.74 61.1058 74.9795 78.8667C57.9591 95.8874 37.9025 91.894 24.8048 82.4778C24.6466 82.3634 24.4688 82.227 24.274 82.0712L12.4694 93.8615C9.61562 96.7128 4.99165 96.7128 2.14032 93.8615C-0.713441 91.0076 -0.713441 86.3835 2.14032 83.5322L13.9328 71.7273C13.7745 71.53 13.6382 71.3523 13.5237 71.194C4.1102 58.0985 0.114442 38.0414 17.1348 21.0183C34.8929 3.25736 90.3878 0.216035 92.8325 0.00905925Z" fill="#EF7E1A"/>
<path fill-rule="evenodd" clip-rule="evenodd" d="M68.9126 46.2899C68.9126 59.6067 61.4984 67.4282 48.9087 67.4282H37.2786C34.5164 67.4282 32.8882 65.7418 32.8882 62.8342V30.0364C32.8882 27.1579 34.5164 25.4715 37.2786 25.4715H48.9087C61.4984 25.4715 68.9126 32.9731 68.9126 46.2899ZM41.6689 60.1592H47.862C55.7124 60.1592 59.9574 55.3907 59.9574 46.319C59.9574 37.538 55.5961 32.7114 47.862 32.7114H41.6689V60.1592Z" fill="white"/>
</svg>
