<svg width="240" height="130" xml:space="preserve" xmlns="http://www.w3.org/2000/svg"><path fill="#fff" d="M.001 109.318C.001 120.723 9.682 130 21.579 130h196.85c11.894 0 21.573-9.28 21.573-20.682V20.681C240.002 9.277 230.322 0 218.428 0H21.577C9.682 0 0 9.279 0 20.68Z" style="stroke-width:1.636"/><path d="M100.57 18.063c1.59-.133 3.064 1.339 2.928 2.928-.196 2.265-3.014 53.727-19.483 70.196-15.783 15.783-34.38 12.08-46.526 3.349a12.903 12.903 0 0 1-.492-.377l-10.948 10.933a6.773 6.773 0 0 1-9.578-9.578l10.935-10.947a12.617 12.617 0 0 1-.38-.494c-8.729-12.144-12.434-30.743 3.349-46.528 16.469-16.47 67.928-19.29 70.195-19.482z" fill="#1e8f4e"/><path fill-rule="evenodd" clip-rule="evenodd" d="M74.489 77.264c0 2.238-1.699 3.829-4.071 3.829-2.292 0-3.505-1.052-4.233-3.586l-2.049-6.148H50.09l-2.049 6.067c-.754 2.588-1.968 3.667-4.125 3.667-2.534 0-4.125-1.483-4.125-3.829 0-.674.19-1.59.54-2.588l10.622-28.93c1.133-3.155 3.047-4.611 6.12-4.611 3.182 0 5.069 1.402 6.228 4.583l10.677 28.958c.377 1.051.512 1.78.512 2.588zM51.869 65.05h10.38l-5.15-15.934h-.188z" fill="#fff"/><path d="M80.25 51.858c-1.596 0-2.55-1.032-2.55-2.706v-5.568h-5.315c-1.597 0-2.61-.935-2.61-2.492 0-1.539 1.013-2.473 2.61-2.473H77.7v-5.607c0-1.655.973-2.707 2.55-2.707s2.531 1.052 2.531 2.707v5.607h5.296c1.617 0 2.628.934 2.628 2.473 0 1.557-1.03 2.492-2.647 2.492H82.78v5.568c0 1.674-.954 2.706-2.53 2.706z" fill="#fff"/><path fill="#1e8f4e" fill-rule="evenodd" d="M2.35 109.318c0 10.017 8.535 18.334 19.229 18.334h196.85c10.693 0 19.227-8.32 19.227-18.334V20.681c0-10.016-8.534-18.333-19.228-18.333H21.577c-10.694 0-19.228 8.32-19.228 18.333zM21.578 130C9.684 130 0 120.723 0 109.318V20.681C.001 9.28 9.68 0 21.577 0h196.851c11.895 0 21.574 9.277 21.574 20.681v88.64c0 11.402-9.68 20.681-21.574 20.681z" clip-rule="evenodd" style="stroke-width:1.636;fill:#1e8f4e;fill-opacity:1"/><g transform="translate(99.997 -97.488) scale(.9273)"><path d="M35.537 129.227v24.909c0 6.227-3.8 9.963-10.135 9.963-5.068 0-7.601-3.736-7.601-3.736v-6.227s3.8 4.981 7.601 4.981c3.8 0 5.068-2.491 5.068-4.981v-3.089c-1.42.299-3.244.598-5.068.598-6.334 0-11.402-4.982-11.402-11.209 0-6.227 5.068-11.209 11.402-11.209zm-10.135 17.436c1.368 0 3.446-.349 5.068-.697v-11.757h-5.068c-3.8 0-6.334 2.491-6.334 6.227s2.533 6.227 6.334 6.227zM45.166 139.191c0-6.228 3.8-9.964 10.135-9.964v4.982c-5.068 0-10.135 1.245-10.135 7.472v12.455h-5.068v-24.909h5.068zM78.894 141.681v1.246H61.26c.558 4.135 4.054 6.227 7.5 6.227 5.068 0 7.602-2.491 7.602-2.491v4.982s-2.534 2.491-7.602 2.491c-7.601 0-12.669-4.982-12.669-12.455 0-7.472 5.068-12.454 11.402-12.454 6.335 0 11.402 4.982 11.402 12.454zm-11.402-7.472c-3.09 0-5.371 1.644-6.08 4.982h12.162c-.71-3.338-2.99-4.982-6.082-4.982zM103.725 141.681v1.246H86.09c.558 4.135 4.054 6.227 7.5 6.227 5.068 0 7.602-2.491 7.602-2.491v4.982s-2.534 2.491-7.602 2.491c-7.601 0-12.669-4.982-12.669-12.455 0-7.472 5.068-12.454 11.402-12.454 6.335 0 11.402 4.982 11.402 12.454zm-11.402-7.472c-3.09 0-5.371 1.644-6.08 4.982h12.161c-.709-3.338-2.99-4.982-6.08-4.982zM120.955 129.227c5.068 0 8.868 3.736 8.868 9.964v14.945h-5.067v-12.455c0-4.981-2.534-7.472-6.335-7.472-3.8 0-6.334 2.491-6.334 7.472v12.455h-5.068v-24.909h5.068v9.964c0-6.228 3.801-9.964 8.868-9.964z" fill="#1d1d1b"/><rect x="99.667" y="165.5" width="31.333" height="17" rx="8.5" fill="#bf3122" stroke="#fff" stroke-width="2"/><rect x="82.333" y="165.5" width="31.333" height="17" rx="8.5" fill="#de4523" stroke="#fff" stroke-width="2"/><rect x="65" y="165.5" width="31.333" height="17" rx="8.5" fill="#ef7e1a" stroke="#fff" stroke-width="2"/><rect x="47.667" y="165.5" width="31.333" height="17" rx="8.5" fill="#f5c100" stroke="#fff" stroke-width="2"/><rect x="30.333" y="165.5" width="31.333" height="17" rx="8.5" fill="#2ecc71" stroke="#fff" stroke-width="2"/><rect x="13" y="165.5" width="31.333" height="17" rx="8.5" fill="#1e8f4e" stroke="#fff" stroke-width="2"/><path fill-rule="evenodd" clip-rule="evenodd" d="M55.352 193.401V199s-4.182-1.401-6.969-1.401c-4.182 0-8.363 2.8-8.363 8.401 0 5.599 4.181 8.401 8.363 8.401 2.787 0 6.969-1.401 6.969-1.401v5.599S52.565 220 48.383 220c-8.363 0-13.937-5.599-13.937-14s5.574-14 13.937-14c4.182 0 6.969 1.401 6.969 1.401zM23.018 220c-4.182 0-8.364-1.401-8.364-1.401V213s4.182 1.401 8.364 1.401c2.787 0 4.182-1.401 4.182-2.8 0-1.662-2.067-2.228-4.564-2.912-3.815-1.045-8.636-2.366-8.636-8.288 0-5.599 3.444-8.401 9.02-8.401 4.182 0 8.364 1.401 8.364 1.401V199s-4.182-1.401-8.364-1.401c-2.787 0-4.181 1.401-4.181 2.8 0 1.662 2.181 2.228 4.819 2.912 4.028 1.045 9.118 2.366 9.118 8.288-.002 5.601-4.184 8.401-9.758 8.401zm62.494-14c0 8.401-5.574 14-13.938 14-8.363 0-13.937-5.599-13.937-14s5.574-14 13.937-14c8.364 0 13.938 5.599 13.938 14zm-22.299 0c0 5.599 4.182 8.401 8.364 8.401 4.181 0 8.363-2.8 8.363-8.401 0-5.599-4.182-8.401-8.363-8.401-4.182 0-8.364 2.802-8.364 8.401zm41.422-14v5.599c-5.574 0-11.15 1.401-11.15 8.401v14H87.91v-28h5.574v11.2c0-7 4.182-11.2 11.151-11.2zM130 207.401h-19.398c.613 4.649 4.459 7 8.25 7 5.574 0 8.363-2.8 8.363-2.8v5.599s-2.787 2.8-8.363 2.8c-8.363 0-13.937-5.599-13.937-14s5.574-14 12.542-14c6.969 0 12.543 5.599 12.543 14zm-19.232-4.201h13.38c-.779-3.752-3.288-5.599-6.688-5.599-3.403-.002-5.912 1.847-6.692 5.599z" fill="#1d1d1b"/></g></svg>