<svg width="96" height="96" viewBox="0 0 96 96" fill="none" xmlns="http://www.w3.org/2000/svg">
<path d="M92.8325 0.00905925C94.5467 -0.134606 96.1367 1.45302 95.9906 3.16726C95.7788 5.60957 92.74 61.1058 74.9795 78.8667C57.9567 95.8874 37.9025 91.894 24.8048 82.4778C24.6466 82.3634 24.4688 82.227 24.274 82.0712L12.4694 93.8615C9.61562 96.7128 4.99165 96.7128 2.14032 93.8615C-0.713441 91.0076 -0.713441 86.3835 2.14032 83.5322L13.9328 71.7273C13.7745 71.53 13.6382 71.3523 13.5237 71.194C4.1102 58.0985 0.114442 38.0414 17.1348 21.0183C34.8929 3.25736 90.3878 0.216035 92.8325 0.00905925Z" fill="#F5C100"/>
<path d="M49.2624 68.126C57.2 68.126 63.4512 64.5496 66.068 58.7344C66.5041 57.7168 66.7367 56.7863 66.7367 55.7978C66.7367 53.4717 65.1085 51.9016 62.6371 51.9016C60.7762 51.9016 59.6714 52.6866 58.77 54.6638C56.8801 58.8798 53.5656 60.8861 49.1461 60.8861C42.4297 60.8861 38.2138 55.3616 38.2138 46.4062C38.2138 37.5671 42.4878 32.0136 49.117 32.0136C53.3039 32.0136 56.7348 34.1652 58.6537 38.4394C59.6132 40.4747 60.8635 41.347 62.8406 41.347C65.1666 41.347 66.7076 39.8641 66.7076 37.5671C66.7076 36.5204 66.4169 35.3864 65.8354 34.2815C62.9569 28.2337 56.8801 24.7446 49.0298 24.7446C36.9635 24.7446 29.2585 32.9149 29.2585 46.4353C29.2585 59.9847 36.8181 68.126 49.2624 68.126Z" fill="white"/>
</svg>
