<svg width="96" height="96" viewBox="0 0 96 96" fill="none" xmlns="http://www.w3.org/2000/svg">
<path d="M92.8326 0.00905925C94.5468 -0.134606 96.1367 1.45302 95.9907 3.16726C95.7788 5.60957 92.7401 61.1058 74.98 78.8667C57.9601 95.8874 37.9039 91.894 24.8067 82.4778C24.6484 82.3634 24.4706 82.227 24.2758 82.0712L12.4691 93.8615C9.61538 96.7128 4.99152 96.7128 2.14027 93.8615C-0.713423 91.0076 -0.713423 86.3835 2.14027 83.5322L13.9324 71.7273C13.7742 71.53 13.6378 71.3523 13.5234 71.194C4.11009 58.0985 0.114439 38.0414 17.1343 21.0183C34.8944 3.25736 90.3904 0.216035 92.8326 0.00905925Z" fill="#2ECC71"/>
<path fill-rule="evenodd" clip-rule="evenodd" d="M52.2042 67.4282C61.1592 67.4282 66.7124 62.8051 66.7124 55.4198C66.7124 49.8663 62.5257 45.7084 56.827 45.2723V45.0396C61.2755 44.3709 64.7063 40.5329 64.7063 35.9389C64.7063 29.5131 59.7636 25.4715 51.8844 25.4715H38.0158C35.2537 25.4715 33.6255 27.1579 33.6255 30.0364V62.8342C33.6255 65.7418 35.2537 67.4282 38.0158 67.4282H52.2042ZM48.7152 42.9171H42.406V32.0136H49.6165C53.716 32.0136 56.0711 33.9326 56.0711 37.3054C56.0711 40.8527 53.3962 42.9171 48.7152 42.9171ZM42.406 60.8861H49.9654C55.0244 60.8861 57.7574 58.7345 57.7574 54.722C57.7574 50.7967 54.9372 48.7032 49.7619 48.7032H42.406V60.8861Z" fill="white"/>
</svg>
