<svg width="96" height="96" viewBox="0 0 96 96" fill="none" xmlns="http://www.w3.org/2000/svg">
<path d="M92.8326 0.00905925C94.5468 -0.134606 96.1367 1.45302 95.9907 3.16726C95.7788 5.60957 92.7401 61.1058 74.98 78.8667C57.9601 95.8874 37.9039 91.894 24.8067 82.4778C24.6484 82.3634 24.4706 82.227 24.2758 82.0712L12.4691 93.8615C9.61538 96.7128 4.99152 96.7128 2.14027 93.8615C-0.713423 91.0076 -0.713423 86.3835 2.14027 83.5322L13.9324 71.7273C13.7742 71.53 13.6378 71.3523 13.5234 71.194C4.11009 58.0985 0.114439 38.0414 17.1343 21.0183C34.8944 3.25736 90.388 0.216035 92.8326 0.00905925Z" fill="#1E8F4E"/>
<path fill-rule="evenodd" clip-rule="evenodd" d="M66.7122 63.8518C66.7122 66.2651 64.8805 67.9806 62.3219 67.9806C59.8506 67.9806 58.5422 66.8466 57.7572 64.1135L55.5475 57.4842H40.3997L38.19 64.0263C37.3759 66.8176 36.0675 67.9806 33.7416 67.9806C31.0086 67.9806 29.2932 66.3814 29.2932 63.8518C29.2932 63.1249 29.4967 62.1363 29.8746 61.0605L41.33 29.862C42.5512 26.4601 44.6155 24.89 47.93 24.89C51.3608 24.89 53.396 26.4019 54.6462 29.8329L66.1598 61.0605C66.5668 62.1945 66.7122 62.9795 66.7122 63.8518ZM42.3186 50.6804H53.5123L47.9591 33.4965H47.7556L42.3186 50.6804Z" fill="white"/>
</svg>
