<svg width="96" height="96" viewBox="0 0 96 96" fill="none" xmlns="http://www.w3.org/2000/svg">
<path d="M92.8326 0.00905925C94.5468 -0.134606 96.1367 1.45302 95.9907 3.16726C95.7788 5.60957 92.7401 61.1058 74.98 78.8667C57.9601 95.8874 37.9039 91.894 24.8067 82.4778C24.6484 82.3634 24.4706 82.227 24.2758 82.0712L12.4691 93.8615C9.61538 96.7128 4.99152 96.7128 2.14027 93.8615C-0.713423 91.0076 -0.713423 86.3835 2.14027 83.5322L13.9324 71.7273C13.7742 71.53 13.6378 71.3523 13.5234 71.194C4.11009 58.0985 0.114439 38.0414 17.1343 21.0183C34.8944 3.25736 90.388 0.216035 92.8326 0.00905925Z" fill="#1E8F4E"/>
<path fill-rule="evenodd" clip-rule="evenodd" d="M64.7073 63.8518C64.7073 66.2651 62.8756 67.9806 60.3171 67.9806C57.8457 67.9806 56.5374 66.8466 55.7523 64.1135L53.5427 57.4842H38.3948L36.1851 64.0263C35.371 66.8176 34.0627 67.9806 31.7367 67.9806C29.0037 67.9806 27.2883 66.3814 27.2883 63.8518C27.2883 63.1249 27.4918 62.1363 27.8698 61.0605L39.3252 29.862C40.5463 26.4601 42.6106 24.89 45.9251 24.89C49.3559 24.89 51.3911 26.4019 52.6413 29.8329L64.1549 61.0605C64.562 62.1945 64.7073 62.9795 64.7073 63.8518ZM40.3137 50.6804H51.5075L45.9542 33.4965H45.7507L40.3137 50.6804Z" fill="white"/>
<path d="M70.9204 36.4541C69.1987 36.4541 68.1699 35.3413 68.1699 33.5356V27.5308H62.438C60.7163 27.5308 59.6245 26.5229 59.6245 24.8433C59.6245 23.1846 60.7163 22.1768 62.438 22.1768H68.1699V16.1299C68.1699 14.3452 69.2197 13.2114 70.9204 13.2114C72.6211 13.2114 73.6499 14.3452 73.6499 16.1299V22.1768H79.3608C81.1035 22.1768 82.1953 23.1846 82.1953 24.8433C82.1953 26.5229 81.0825 27.5308 79.3398 27.5308H73.6499V33.5356C73.6499 35.3413 72.6211 36.4541 70.9204 36.4541Z" fill="white"/>
</svg>
